<svg viewBox="0 0 287.23 54.125" xmlns="http://www.w3.org/2000/svg"><g fill="#b85e28"><path d="m2.009 34.893h-2.009v7.2h2.009v-2.618h7.637v-1.964h-7.637z"/><path d="m0 25.627h3.793v3.512h-3.793v1.964h9.646v-1.964h-3.845v-3.512h3.845v-1.964h-9.646z"/><path d="m7.638 17.293h-1.837v-2.895h-2.008v2.895h-1.784v-5.261h-2.009v7.2h9.646v-7.2h-2.008z"/><path d="m280.477 19.968a2.621 2.621 0 0 0 2.643-1.925c.278-.895.159-1.75.383-2.342a.792.792 0 0 1 .753-.567c.569 0 1.018.5 1.018 1.335s-.409 1.385-1.044 1.41v1.951a3.054 3.054 0 0 0 3-3.336 3.067 3.067 0 0 0 -3.079-3.3 2.542 2.542 0 0 0 -2.59 1.888c-.238.818-.172 1.788-.384 2.354a.852.852 0 0 1 -.819.592c-.621 0-1.11-.516-1.11-1.435 0-.882.462-1.536 1.163-1.536v-1.937a3.175 3.175 0 0 0 -3.119 3.449 3.147 3.147 0 0 0 3.185 3.399z"/><path d="m285.076 25.734h-7.638v1.964h7.638v2.618h2.008v-7.2h-2.008z"/><path d="m277.438 35.566h2.616v2a3.516 3.516 0 0 0 7.03 0v-3.966h-9.646zm4.625 0h3.013v2.04a1.508 1.508 0 0 1 -3.013 0z"/><path d="m53.791.7h-21.623v52.72h12.08v-14.846h9.543c11.157 0 19.255-7.964 19.255-18.935s-8.098-18.939-19.255-18.939zm-12.543 28.986v20.734h-6.08v-46.72h6.08zm3-14.054v-2.977h9.671a6.642 6.642 0 0 1 7.047 6.984 6.672 6.672 0 0 1 -7.047 7.047h-9.671zm9.543 19.942h-9.543v-5.888h9.671a9.679 9.679 0 0 0 10.047-10.047 9.628 9.628 0 0 0 -10.047-9.984h-9.671v-5.955h9.543c9.6 0 16.255 6.719 16.255 15.935 0 9.283-6.655 15.939-16.255 15.939z"/><path d="m85.665.7h-3v52.72h12.079v-52.72zm6.079 49.72h-6.079v-46.72h6.079z"/><path d="m109.28.7h-3v11.955h14.527v40.765h12.08v-40.765h14.463v-11.955zm20.607 49.72h-6.08v-37.765h6.08zm14.463-40.765h-35.07v-5.955h35.07z"/><path d="m179.213 11.952a13.511 13.511 0 0 1 11.626 6.054l1.762 2.72 2.575-1.966 4.864-3.712 2.254-1.72-1.594-2.348c-4.724-6.98-12.557-10.98-21.487-10.98a26.428 26.428 0 0 0 -19.146 7.784 27.412 27.412 0 0 0 -7.532 19.342c0 15.392 11.469 27 26.678 27 8.978 0 16.815-4.033 21.5-11.064l1.561-2.342-2.237-1.707-4.861-3.713-2.592-1.978-1.756 2.747a13.433 13.433 0 0 1 -11.615 6.1c-8.459 0-14.6-6.328-14.6-15.047.001-8.93 6.004-15.17 14.6-15.17zm0 33.221a16.36 16.36 0 0 0 14.143-7.487l4.864 3.714c-3.968 5.952-10.751 9.728-19.007 9.728-13.273 0-22.97-9.59-23.638-22.563h6.1c.648 9.519 7.663 16.608 17.538 16.608zm-17.531-19.611h-6.1c.718-13.028 10.397-22.562 23.631-22.562 8.256 0 14.974 3.711 19.007 9.663l-4.864 3.712a16.451 16.451 0 0 0 -14.143-7.423c-9.841 0-16.843 6.981-17.531 16.61z"/><path d="m245.836.7h-3v20.226h-17.679v-20.226h-12.079v52.72h12.079v-20.478h17.679v20.478h12.08v-52.72zm-23.679 14.13v35.59h-6.079v-46.72h6.079zm29.759 35.59h-6.08v-20.478h-20.679v-6.016h20.679v-20.226h6.08z"/></g></svg>